<mxfile host="app.diagrams.net" modified="2021-04-25T02:25:02.628Z" agent="5.0 (Windows NT 10.0; Win64; x64) AppleWebKit/537.36 (KHTML, like Gecko) Chrome/90.0.4430.85 Safari/537.36" etag="OnHkLzDAa41_o2X2C0p2" version="14.6.6" type="github">
  <diagram id="p13gWJvnOynUkY_Kk053" name="Page-1">
    <mxGraphModel dx="2036" dy="1250" grid="1" gridSize="10" guides="1" tooltips="1" connect="1" arrows="1" fold="1" page="1" pageScale="1" pageWidth="827" pageHeight="1169" math="0" shadow="0">
      <root>
        <mxCell id="0" />
        <mxCell id="1" parent="0" />
        <mxCell id="qiENcyaAOs3GM5RNFf0--37" style="edgeStyle=orthogonalEdgeStyle;rounded=0;orthogonalLoop=1;jettySize=auto;html=1;entryX=0.5;entryY=0;entryDx=0;entryDy=0;endArrow=none;endFill=0;" edge="1" parent="1" source="qiENcyaAOs3GM5RNFf0--1" target="qiENcyaAOs3GM5RNFf0--27">
          <mxGeometry relative="1" as="geometry" />
        </mxCell>
        <mxCell id="qiENcyaAOs3GM5RNFf0--1" value="&amp;lt;&amp;lt;control&amp;gt;&amp;gt;&lt;br&gt;Controller" style="rounded=0;whiteSpace=wrap;html=1;" vertex="1" parent="1">
          <mxGeometry x="570" y="291" width="120" height="60" as="geometry" />
        </mxCell>
        <mxCell id="qiENcyaAOs3GM5RNFf0--36" style="edgeStyle=orthogonalEdgeStyle;rounded=0;orthogonalLoop=1;jettySize=auto;html=1;exitX=1;exitY=0.5;exitDx=0;exitDy=0;entryX=0;entryY=0.5;entryDx=0;entryDy=0;endArrow=none;endFill=0;" edge="1" parent="1" source="qiENcyaAOs3GM5RNFf0--3" target="qiENcyaAOs3GM5RNFf0--27">
          <mxGeometry relative="1" as="geometry" />
        </mxCell>
        <mxCell id="qiENcyaAOs3GM5RNFf0--3" value="&amp;lt;&amp;lt;boundary&amp;gt;&amp;gt;&lt;br&gt;Interface Page" style="rounded=0;whiteSpace=wrap;html=1;" vertex="1" parent="1">
          <mxGeometry x="330" y="480" width="120" height="60" as="geometry" />
        </mxCell>
        <mxCell id="qiENcyaAOs3GM5RNFf0--38" style="edgeStyle=orthogonalEdgeStyle;rounded=0;orthogonalLoop=1;jettySize=auto;html=1;endArrow=none;endFill=0;" edge="1" parent="1" source="qiENcyaAOs3GM5RNFf0--5" target="qiENcyaAOs3GM5RNFf0--1">
          <mxGeometry relative="1" as="geometry" />
        </mxCell>
        <mxCell id="qiENcyaAOs3GM5RNFf0--40" style="edgeStyle=orthogonalEdgeStyle;rounded=0;orthogonalLoop=1;jettySize=auto;html=1;exitX=0.5;exitY=1;exitDx=0;exitDy=0;entryX=0.5;entryY=0;entryDx=0;entryDy=0;endArrow=none;endFill=0;" edge="1" parent="1" source="qiENcyaAOs3GM5RNFf0--5" target="qiENcyaAOs3GM5RNFf0--23">
          <mxGeometry relative="1" as="geometry" />
        </mxCell>
        <mxCell id="qiENcyaAOs3GM5RNFf0--5" value="&amp;lt;&amp;lt;boundary&amp;gt;&amp;gt;&lt;br&gt;Database Connection" style="rounded=0;whiteSpace=wrap;html=1;" vertex="1" parent="1">
          <mxGeometry x="820" y="291" width="120" height="60" as="geometry" />
        </mxCell>
        <mxCell id="qiENcyaAOs3GM5RNFf0--42" style="edgeStyle=orthogonalEdgeStyle;rounded=0;orthogonalLoop=1;jettySize=auto;html=1;exitX=0.5;exitY=0.5;exitDx=0;exitDy=0;exitPerimeter=0;endArrow=none;endFill=0;" edge="1" parent="1" source="qiENcyaAOs3GM5RNFf0--7" target="qiENcyaAOs3GM5RNFf0--5">
          <mxGeometry relative="1" as="geometry" />
        </mxCell>
        <mxCell id="qiENcyaAOs3GM5RNFf0--7" value="Database" style="shape=umlActor;verticalLabelPosition=bottom;verticalAlign=top;html=1;outlineConnect=0;" vertex="1" parent="1">
          <mxGeometry x="1030" y="291" width="30" height="60" as="geometry" />
        </mxCell>
        <mxCell id="qiENcyaAOs3GM5RNFf0--33" style="edgeStyle=orthogonalEdgeStyle;rounded=0;orthogonalLoop=1;jettySize=auto;html=1;entryX=0;entryY=0.5;entryDx=0;entryDy=0;endArrow=none;endFill=0;exitX=0.75;exitY=0.1;exitDx=0;exitDy=0;exitPerimeter=0;" edge="1" parent="1" source="qiENcyaAOs3GM5RNFf0--8" target="qiENcyaAOs3GM5RNFf0--19">
          <mxGeometry relative="1" as="geometry" />
        </mxCell>
        <mxCell id="qiENcyaAOs3GM5RNFf0--34" style="edgeStyle=orthogonalEdgeStyle;rounded=0;orthogonalLoop=1;jettySize=auto;html=1;endArrow=none;endFill=0;exitX=1;exitY=0.3333333333333333;exitDx=0;exitDy=0;exitPerimeter=0;" edge="1" parent="1" source="qiENcyaAOs3GM5RNFf0--8" target="qiENcyaAOs3GM5RNFf0--3">
          <mxGeometry relative="1" as="geometry">
            <Array as="points">
              <mxPoint x="230" y="450" />
              <mxPoint x="230" y="480" />
              <mxPoint x="430" y="480" />
            </Array>
          </mxGeometry>
        </mxCell>
        <mxCell id="qiENcyaAOs3GM5RNFf0--8" value="Guest" style="shape=umlActor;verticalLabelPosition=bottom;verticalAlign=top;html=1;outlineConnect=0;" vertex="1" parent="1">
          <mxGeometry x="170" y="430" width="30" height="60" as="geometry" />
        </mxCell>
        <mxCell id="qiENcyaAOs3GM5RNFf0--35" style="edgeStyle=orthogonalEdgeStyle;rounded=0;orthogonalLoop=1;jettySize=auto;html=1;exitX=1;exitY=0.5;exitDx=0;exitDy=0;entryX=0;entryY=0.5;entryDx=0;entryDy=0;endArrow=none;endFill=0;" edge="1" parent="1" source="qiENcyaAOs3GM5RNFf0--19" target="qiENcyaAOs3GM5RNFf0--1">
          <mxGeometry relative="1" as="geometry" />
        </mxCell>
        <mxCell id="qiENcyaAOs3GM5RNFf0--19" value="&lt;&lt;boundary&gt;&gt;&#xa;Search Request" style="swimlane;fontStyle=0;childLayout=stackLayout;horizontal=1;startSize=50;horizontalStack=0;resizeParent=1;resizeParentMax=0;resizeLast=0;collapsible=1;marginBottom=0;" vertex="1" parent="1">
          <mxGeometry x="330" y="270" width="140" height="102" as="geometry">
            <mxRectangle x="330" y="270" width="120" height="50" as="alternateBounds" />
          </mxGeometry>
        </mxCell>
        <mxCell id="qiENcyaAOs3GM5RNFf0--20" value="user&#39;s identity" style="text;align=left;verticalAlign=top;spacingLeft=4;spacingRight=4;overflow=hidden;rotatable=0;points=[[0,0.5],[1,0.5]];portConstraint=eastwest;fillColor=#ffffff;" vertex="1" parent="qiENcyaAOs3GM5RNFf0--19">
          <mxGeometry y="50" width="140" height="26" as="geometry" />
        </mxCell>
        <mxCell id="qiENcyaAOs3GM5RNFf0--32" value="search parameter" style="text;align=left;verticalAlign=top;spacingLeft=4;spacingRight=4;overflow=hidden;rotatable=0;points=[[0,0.5],[1,0.5]];portConstraint=eastwest;fillColor=#ffffff;" vertex="1" parent="qiENcyaAOs3GM5RNFf0--19">
          <mxGeometry y="76" width="140" height="26" as="geometry" />
        </mxCell>
        <mxCell id="qiENcyaAOs3GM5RNFf0--23" value="&lt;&lt;entity&gt;&gt;&#xa;Postprocessor" style="swimlane;fontStyle=0;childLayout=stackLayout;horizontal=1;startSize=50;horizontalStack=0;resizeParent=1;resizeParentMax=0;resizeLast=0;collapsible=1;marginBottom=0;" vertex="1" parent="1">
          <mxGeometry x="810" y="472" width="140" height="76" as="geometry" />
        </mxCell>
        <mxCell id="qiENcyaAOs3GM5RNFf0--24" value="search parameter" style="text;align=left;verticalAlign=top;spacingLeft=4;spacingRight=4;overflow=hidden;rotatable=0;points=[[0,0.5],[1,0.5]];portConstraint=eastwest;fillColor=#ffffff;" vertex="1" parent="qiENcyaAOs3GM5RNFf0--23">
          <mxGeometry y="50" width="140" height="26" as="geometry" />
        </mxCell>
        <mxCell id="qiENcyaAOs3GM5RNFf0--41" style="edgeStyle=orthogonalEdgeStyle;rounded=0;orthogonalLoop=1;jettySize=auto;html=1;endArrow=none;endFill=0;" edge="1" parent="1" source="qiENcyaAOs3GM5RNFf0--27" target="qiENcyaAOs3GM5RNFf0--23">
          <mxGeometry relative="1" as="geometry" />
        </mxCell>
        <mxCell id="qiENcyaAOs3GM5RNFf0--27" value="&lt;&lt;entity&gt;&gt;&#xa;Page Maker" style="swimlane;fontStyle=0;childLayout=stackLayout;horizontal=1;startSize=50;horizontalStack=0;resizeParent=1;resizeParentMax=0;resizeLast=0;collapsible=1;marginBottom=0;" vertex="1" parent="1">
          <mxGeometry x="560" y="472" width="140" height="76" as="geometry" />
        </mxCell>
        <mxCell id="qiENcyaAOs3GM5RNFf0--28" value="records list" style="text;align=left;verticalAlign=top;spacingLeft=4;spacingRight=4;overflow=hidden;rotatable=0;points=[[0,0.5],[1,0.5]];portConstraint=eastwest;fillColor=#ffffff;" vertex="1" parent="qiENcyaAOs3GM5RNFf0--27">
          <mxGeometry y="50" width="140" height="26" as="geometry" />
        </mxCell>
        <mxCell id="qiENcyaAOs3GM5RNFf0--10" value="" style="verticalLabelPosition=bottom;verticalAlign=top;html=1;shape=mxgraph.basic.smiley" vertex="1" parent="1">
          <mxGeometry x="680" y="450" width="40" height="40" as="geometry" />
        </mxCell>
        <mxCell id="qiENcyaAOs3GM5RNFf0--44" value="" style="verticalLabelPosition=bottom;verticalAlign=top;html=1;shape=mxgraph.basic.smiley" vertex="1" parent="1">
          <mxGeometry x="670" y="270" width="40" height="40" as="geometry" />
        </mxCell>
        <mxCell id="qiENcyaAOs3GM5RNFf0--45" value="" style="verticalLabelPosition=bottom;verticalAlign=top;html=1;shape=mxgraph.basic.smiley" vertex="1" parent="1">
          <mxGeometry x="920" y="270" width="40" height="40" as="geometry" />
        </mxCell>
        <mxCell id="qiENcyaAOs3GM5RNFf0--46" value="" style="verticalLabelPosition=bottom;verticalAlign=top;html=1;shape=mxgraph.basic.smiley" vertex="1" parent="1">
          <mxGeometry x="930" y="450" width="40" height="40" as="geometry" />
        </mxCell>
        <mxCell id="qiENcyaAOs3GM5RNFf0--47" value="" style="shape=note2;boundedLbl=1;whiteSpace=wrap;html=1;size=17;verticalAlign=top;align=center;fillColor=#ffffff;" vertex="1" parent="1">
          <mxGeometry x="450" y="250" width="40" height="40" as="geometry" />
        </mxCell>
        <mxCell id="qiENcyaAOs3GM5RNFf0--48" value="" style="shape=note2;boundedLbl=1;whiteSpace=wrap;html=1;size=17;verticalAlign=top;align=center;fillColor=#ffffff;" vertex="1" parent="1">
          <mxGeometry x="430" y="460" width="40" height="40" as="geometry" />
        </mxCell>
      </root>
    </mxGraphModel>
  </diagram>
</mxfile>
